<mxfile host="app.diagrams.net" modified="2023-05-12T19:14:40.054Z" agent="Mozilla/5.0 (X11; Linux x86_64; rv:109.0) Gecko/20100101 Firefox/111.0" etag="Uhq-XpU4qm8WXt0jcsOQ" version="21.2.4" type="device">
  <diagram name="Page-1" id="bOenJ81ksPwIGexcrGSW">
    <mxGraphModel dx="954" dy="578" grid="1" gridSize="10" guides="1" tooltips="1" connect="1" arrows="1" fold="1" page="1" pageScale="1" pageWidth="850" pageHeight="1100" math="0" shadow="0">
      <root>
        <mxCell id="0" />
        <mxCell id="1" parent="0" />
        <mxCell id="EQIUyiITyCSGiHwWkNuB-5" style="edgeStyle=orthogonalEdgeStyle;rounded=0;orthogonalLoop=1;jettySize=auto;html=1;entryX=0;entryY=0.5;entryDx=0;entryDy=0;" parent="1" source="EQIUyiITyCSGiHwWkNuB-1" target="EQIUyiITyCSGiHwWkNuB-3" edge="1">
          <mxGeometry relative="1" as="geometry">
            <Array as="points">
              <mxPoint x="290" y="250" />
              <mxPoint x="290" y="330" />
            </Array>
          </mxGeometry>
        </mxCell>
        <mxCell id="EQIUyiITyCSGiHwWkNuB-16" style="edgeStyle=orthogonalEdgeStyle;rounded=0;orthogonalLoop=1;jettySize=auto;html=1;entryX=0;entryY=0.5;entryDx=0;entryDy=0;" parent="1" source="EQIUyiITyCSGiHwWkNuB-1" target="EQIUyiITyCSGiHwWkNuB-2" edge="1">
          <mxGeometry relative="1" as="geometry">
            <Array as="points">
              <mxPoint x="290" y="250" />
              <mxPoint x="290" y="180" />
            </Array>
          </mxGeometry>
        </mxCell>
        <mxCell id="EQIUyiITyCSGiHwWkNuB-1" value="Source" style="ellipse;whiteSpace=wrap;html=1;aspect=fixed;fillColor=#ffe6cc;strokeColor=#d79b00;" parent="1" vertex="1">
          <mxGeometry x="170" y="210" width="80" height="80" as="geometry" />
        </mxCell>
        <mxCell id="EQIUyiITyCSGiHwWkNuB-10" style="edgeStyle=orthogonalEdgeStyle;rounded=0;orthogonalLoop=1;jettySize=auto;html=1;entryX=0.5;entryY=0;entryDx=0;entryDy=0;" parent="1" source="EQIUyiITyCSGiHwWkNuB-2" target="EQIUyiITyCSGiHwWkNuB-9" edge="1">
          <mxGeometry relative="1" as="geometry" />
        </mxCell>
        <mxCell id="EQIUyiITyCSGiHwWkNuB-2" value="Load trips data" style="ellipse;whiteSpace=wrap;html=1;aspect=fixed;" parent="1" vertex="1">
          <mxGeometry x="450" y="140" width="80" height="80" as="geometry" />
        </mxCell>
        <mxCell id="EQIUyiITyCSGiHwWkNuB-8" value="" style="edgeStyle=orthogonalEdgeStyle;rounded=0;orthogonalLoop=1;jettySize=auto;html=1;" parent="1" source="EQIUyiITyCSGiHwWkNuB-3" target="EQIUyiITyCSGiHwWkNuB-7" edge="1">
          <mxGeometry relative="1" as="geometry" />
        </mxCell>
        <mxCell id="EQIUyiITyCSGiHwWkNuB-3" value="Load weather data" style="ellipse;whiteSpace=wrap;html=1;aspect=fixed;" parent="1" vertex="1">
          <mxGeometry x="345" y="290" width="80" height="80" as="geometry" />
        </mxCell>
        <mxCell id="EQIUyiITyCSGiHwWkNuB-11" style="edgeStyle=orthogonalEdgeStyle;rounded=0;orthogonalLoop=1;jettySize=auto;html=1;entryX=0.5;entryY=1;entryDx=0;entryDy=0;" parent="1" source="EQIUyiITyCSGiHwWkNuB-7" target="EQIUyiITyCSGiHwWkNuB-9" edge="1">
          <mxGeometry relative="1" as="geometry" />
        </mxCell>
        <mxCell id="EQIUyiITyCSGiHwWkNuB-7" value="Filter prectot &amp;gt; 30mm" style="ellipse;whiteSpace=wrap;html=1;aspect=fixed;" parent="1" vertex="1">
          <mxGeometry x="520" y="290" width="80" height="80" as="geometry" />
        </mxCell>
        <mxCell id="EQIUyiITyCSGiHwWkNuB-13" value="" style="edgeStyle=orthogonalEdgeStyle;rounded=0;orthogonalLoop=1;jettySize=auto;html=1;" parent="1" source="EQIUyiITyCSGiHwWkNuB-9" target="EQIUyiITyCSGiHwWkNuB-12" edge="1">
          <mxGeometry relative="1" as="geometry" />
        </mxCell>
        <mxCell id="EQIUyiITyCSGiHwWkNuB-9" value="Join by date" style="ellipse;whiteSpace=wrap;html=1;aspect=fixed;" parent="1" vertex="1">
          <mxGeometry x="630" y="220" width="80" height="80" as="geometry" />
        </mxCell>
        <mxCell id="EQIUyiITyCSGiHwWkNuB-15" value="" style="edgeStyle=orthogonalEdgeStyle;rounded=0;orthogonalLoop=1;jettySize=auto;html=1;" parent="1" source="EQIUyiITyCSGiHwWkNuB-12" target="EQIUyiITyCSGiHwWkNuB-14" edge="1">
          <mxGeometry relative="1" as="geometry" />
        </mxCell>
        <mxCell id="EQIUyiITyCSGiHwWkNuB-12" value="Calculate average duration by date" style="ellipse;whiteSpace=wrap;html=1;aspect=fixed;" parent="1" vertex="1">
          <mxGeometry x="760" y="220" width="80" height="80" as="geometry" />
        </mxCell>
        <mxCell id="EQIUyiITyCSGiHwWkNuB-14" value="Sink" style="ellipse;whiteSpace=wrap;html=1;aspect=fixed;fillColor=#d5e8d4;strokeColor=#82b366;" parent="1" vertex="1">
          <mxGeometry x="890" y="220" width="80" height="80" as="geometry" />
        </mxCell>
      </root>
    </mxGraphModel>
  </diagram>
</mxfile>
